# File created by Blade
# Date/Time:  Wed Apr 08 17:35:25 2015
# Frame Rate: 120.000 fps
#------------------------------------------------------
:FULLY-SPECIFIED
:DEGREES
2417
root 10.874701 38.721757 5.566105 185.910654 -36.047824 -135.921477
Spine -15.714541 3.560877 2.855287
Head 34.022526 1.015370 29.528461
LeftShoulder -7.302629 18.587172 19.439734
LeftArm 20.916331 22.640700 -71.921837
LeftForeArm 15.346918 0.000000 28.232491
LeftHand -14.302207 -0.000000 -7.615605
LeftHandThumb1 -26.253704 0.000000 33.147579
RightShoulder -38.382573 -47.505801 22.747303
RightArm 48.125071 -6.280015 63.341359
RightForeArm 3.653221 -0.000000 11.227481
RightHand -2.140494 -0.000000 6.909413
RightHandThumb1 -24.326973 -0.000000 -32.862282
LeftUpLeg -55.744772 44.492548 -7.280887
LeftLeg 9.418312 -0.000000 -0.000000
LeftFoot -8.033184 17.584216 -4.671653
LeftToeBase 9.815728 -0.000000 -0.000000
RightUpLeg -62.986503 -13.300306 -10.515169
RightLeg 137.549865 -0.000000 -0.000000
RightFoot 42.599628 2.812066 27.189431
RightToeBase 24.027833 -0.000000 -0.000000
2418
root 10.883980 38.726427 5.571689 185.986117 -35.956742 -135.932963
Spine -15.661656 3.581262 2.782542
Head 33.947878 1.035963 29.587840
LeftShoulder -7.270179 18.547967 19.477209
LeftArm 20.943792 22.457257 -71.952836
LeftForeArm 15.393518 -0.000000 28.184520
LeftHand -14.370504 -0.000000 -7.541498
LeftHandThumb1 -26.253704 0.000000 33.147579
RightShoulder -38.403212 -47.513647 22.768865
RightArm 48.116336 -6.226635 63.347702
RightForeArm 3.641392 -0.000000 11.255375
RightHand -2.412915 -0.000000 7.297280
RightHandThumb1 -24.326973 -0.000000 -32.862282
LeftUpLeg -55.874016 44.591735 -7.407085
LeftLeg 9.392043 -0.000000 -0.000000
LeftFoot -8.021914 17.565747 -4.681894
LeftToeBase 9.898841 -0.000000 -0.000000
RightUpLeg -62.905948 -13.050288 -10.602396
RightLeg 137.747290 -0.000000 -0.000000
RightFoot 42.745423 2.985171 27.070418
RightToeBase 23.636755 -0.000000 -0.000000
2419
root 10.893171 38.732495 5.575338 186.037214 -35.857005 -135.935399
Spine -15.575194 3.585636 2.713819
Head 33.895110 1.021929 29.680415
LeftShoulder -7.266468 18.482169 19.509305
LeftArm 20.952105 22.320886 -71.970947
LeftForeArm 15.481776 -0.000000 28.136148
LeftHand -14.297739 0.000000 -7.447739
LeftHandThumb1 -26.253704 0.000000 33.147579
RightShoulder -38.418657 -47.479760 22.763178
RightArm 48.115545 -6.226475 63.276359
RightForeArm 3.652151 -0.000000 11.277438
RightHand -2.726103 -0.000000 7.849159
RightHandThumb1 -24.326973 -0.000000 -32.862282
LeftUpLeg -55.962544 44.710186 -7.516972
LeftLeg 9.326473 -0.000000 -0.000000
LeftFoot -8.009657 17.538590 -4.698667
LeftToeBase 10.024696 -0.000000 -0.000000
RightUpLeg -62.843396 -12.789933 -10.586202
RightLeg 137.924866 -0.000000 -0.000000
RightFoot 42.863706 3.228130 26.934265
RightToeBase 23.547807 -0.000000 -0.000000
2420
root 10.902295 38.737862 5.579870 186.085282 -35.715753 -135.943119
Spine -15.480668 3.621241 2.634947
Head 33.842542 1.037953 29.797202
LeftShoulder -7.251893 18.442609 19.565196
LeftArm 20.957463 22.127593 -72.052505
LeftForeArm 15.576826 -0.000000 28.113072
LeftHand -14.349562 -0.000000 -7.305371
LeftHandThumb1 -26.253704 0.000000 33.147579
RightShoulder -38.382610 -47.337263 22.681105
RightArm 48.050182 -6.326914 63.118040
RightForeArm 3.759524 -0.000000 11.275308
RightHand -2.844970 -0.000000 8.487380
RightHandThumb1 -24.326973 -0.000000 -32.862282
LeftUpLeg -56.002693 44.851701 -7.595757
LeftLeg 9.232204 -0.000000 -0.000000
LeftFoot -8.000322 17.536862 -4.715649
LeftToeBase 10.130503 -0.000000 -0.000000
RightUpLeg -62.830938 -12.489467 -10.483021
RightLeg 138.081401 -0.000000 -0.000000
RightFoot 42.931829 3.391607 26.992652
RightToeBase 23.930753 -0.000000 -0.000000
2421
root 10.910742 38.742658 5.585932 186.143242 -35.586124 -135.970303
Spine -15.392948 3.592692 2.541231
Head 33.822410 1.079789 29.942779
LeftShoulder -7.267875 18.433939 19.636687
LeftArm 20.956499 21.983397 -72.129574
LeftForeArm 15.660878 -0.000000 28.128888
LeftHand -14.606826 -0.000000 -7.109842
LeftHandThumb1 -26.253704 0.000000 33.147579
RightShoulder -38.287175 -47.190553 22.544583
RightArm 48.009427 -6.485954 62.902599
RightForeArm 3.681088 0.000000 11.190541
RightHand -2.807701 -0.000000 8.860869
RightHandThumb1 -24.326973 -0.000000 -32.862282
LeftUpLeg -56.029367 44.974747 -7.675237
LeftLeg 9.142127 -0.000000 -0.000000
LeftFoot -8.005994 17.521988 -4.765883
LeftToeBase 10.239188 -0.000000 -0.000000
RightUpLeg -62.864597 -12.224367 -10.316698
RightLeg 138.213953 -0.000000 -0.000000
RightFoot 42.963934 3.495564 27.101081
RightToeBase 24.689630 -0.000000 -0.000000
2422
root 10.919342 38.746222 5.592336 186.228487 -35.418752 -136.017453
Spine -15.314203 3.623654 2.428973
Head 33.773182 1.086845 30.030367
LeftShoulder -7.273993 18.425386 19.663334
LeftArm 20.970910 21.849792 -72.128191
LeftForeArm 15.700293 -0.000000 28.167114
LeftHand -14.468044 -0.000000 -7.122919
LeftHandThumb1 -26.253704 0.000000 33.147579
RightShoulder -38.270444 -47.149930 22.499596
RightArm 48.022112 -6.577033 62.704852
RightForeArm 3.744782 -0.000000 11.221166
RightHand -3.196170 -0.000000 9.705294
RightHandThumb1 -24.326973 -0.000000 -32.862282
LeftUpLeg -56.058554 45.123986 -7.778048
LeftLeg 9.030395 -0.000000 -0.000000
LeftFoot -8.007916 17.528536 -4.795753
LeftToeBase 10.352927 -0.000000 -0.000000
RightUpLeg -62.973744 -11.935636 -10.058439
RightLeg 138.309133 -0.000000 -0.000000
RightFoot 42.990071 3.704126 27.210233
RightToeBase 25.141815 -0.000000 -0.000000
2423
root 10.927553 38.749353 5.597646 186.320157 -35.275728 -136.074619
Spine -15.236439 3.616520 2.316425
Head 33.752317 1.105617 30.130951
LeftShoulder -7.272306 18.362067 19.697619
LeftArm 20.900549 21.784204 -72.123531
LeftForeArm 15.633922 -0.000000 28.248031
LeftHand -14.447439 0.000000 -7.030059
LeftHandThumb1 -26.253704 0.000000 33.147579
RightShoulder -38.260065 -47.159171 22.494419
RightArm 48.066444 -6.577255 62.567176
RightForeArm 3.687477 0.000000 11.223405
RightHand -3.332897 -0.000000 10.411221
RightHandThumb1 -24.326973 -0.000000 -32.862282
LeftUpLeg -56.084987 45.244270 -7.881549
LeftLeg 8.923359 -0.000000 -0.000000
LeftFoot -7.998019 17.534815 -4.833506
LeftToeBase 10.438917 -0.000000 -0.000000
RightUpLeg -63.153948 -11.733470 -9.646700
RightLeg 138.341996 -0.000000 -0.000000
RightFoot 43.118348 4.002709 26.928239
RightToeBase 25.402464 -0.000000 -0.000000
2424
root 10.935440 38.750095 5.603941 186.415894 -35.137139 -136.172498
Spine -15.135921 3.581083 2.175608
Head 33.722652 1.175788 30.218765
LeftShoulder -7.265182 18.339064 19.705340
LeftArm 20.829043 21.660520 -72.098750
LeftForeArm 15.573250 -0.000000 28.384619
LeftHand -14.466976 0.000000 -7.059530
LeftHandThumb1 -26.253704 0.000000 33.147579
RightShoulder -38.231442 -47.166691 22.485882
RightArm 48.140356 -6.625594 62.338887
RightForeArm 3.709031 -0.000000 11.189730
RightHand -3.445523 -0.000000 11.122348
RightHandThumb1 -24.326973 -0.000000 -32.862282
LeftUpLeg -56.102581 45.371324 -8.030404
LeftLeg 8.811436 -0.000000 -0.000000
LeftFoot -7.957036 17.548222 -4.795233
LeftToeBase 10.452765 -0.000000 -0.000000
RightUpLeg -63.352520 -11.531882 -9.167066
RightLeg 138.339607 -0.000000 -0.000000
RightFoot 43.097244 4.060836 26.879235
RightToeBase 26.257881 -0.000000 -0.000000
2425
root 10.947409 38.750352 5.609535 186.495063 -35.017151 -136.236407
Spine -15.011839 3.548514 2.068162
Head 33.650557 1.212302 30.257731
LeftShoulder -7.271551 18.316913 19.700009
LeftArm 20.821756 21.616982 -71.999483
LeftForeArm 15.419384 -0.000000 28.507234
LeftHand -14.505182 0.000000 -7.117024
LeftHandThumb1 -26.253704 0.000000 33.147579
RightShoulder -38.240788 -47.123541 22.472424
RightArm 48.153493 -6.610530 62.224226
RightForeArm 3.742298 -0.000000 11.251659
RightHand -3.745513 -0.000000 12.081981
RightHandThumb1 -24.326973 -0.000000 -32.862282
LeftUpLeg -56.162630 45.485924 -8.171449
LeftLeg 8.724139 -0.000000 -0.000000
LeftFoot -7.905300 17.565710 -4.737126
LeftToeBase 10.385071 -0.000000 -0.000000
RightUpLeg -63.608400 -11.348518 -8.518459
RightLeg 138.273476 -0.000000 -0.000000
RightFoot 43.093150 4.291178 26.619936
RightToeBase 27.160662 -0.000000 -0.000000
2426
root 10.959684 38.751912 5.611070 186.560657 -34.920426 -136.270005
Spine -14.909213 3.474607 1.973346
Head 33.580718 1.240391 30.338535
LeftShoulder -7.271449 18.300842 19.726861
LeftArm 20.796768 21.571988 -71.943620
LeftForeArm 15.345921 -0.000000 28.610752
LeftHand -14.536654 -0.000000 -7.176692
LeftHandThumb1 -26.253704 0.000000 33.147579
RightShoulder -38.234412 -47.086803 22.473483
RightArm 48.177941 -6.604562 62.079302
RightForeArm 3.839692 -0.000000 11.245611
RightHand -3.948975 -0.000000 13.203001
RightHandThumb1 -24.326973 -0.000000 -32.862282
LeftUpLeg -56.227216 45.580269 -8.279681
LeftLeg 8.645138 -0.000000 -0.000000
LeftFoot -7.836593 17.591888 -4.642253
LeftToeBase 10.380331 -0.000000 -0.000000
RightUpLeg -63.910530 -11.235114 -7.647255
RightLeg 138.149505 -0.000000 -0.000000
RightFoot 43.044190 4.530956 26.224653
RightToeBase 27.793884 -0.000000 -0.000000
2427
root 10.974664 38.752885 5.609619 186.581602 -34.851384 -136.271379
Spine -14.788724 3.334360 1.910256
Head 33.548804 1.306456 30.428212
LeftShoulder -7.274921 18.321830 19.765824
LeftArm 20.781267 21.520681 -71.897717
LeftForeArm 15.287225 0.000000 28.701225
LeftHand -14.495413 -0.000000 -7.209832
LeftHandThumb1 -26.253704 0.000000 33.147579
RightShoulder -38.204498 -47.104647 22.477307
RightArm 48.237679 -6.554462 61.951720
RightForeArm 4.255393 -0.000000 11.279779
RightHand -4.381732 0.000000 14.504974
RightHandThumb1 -24.326973 -0.000000 -32.862282
LeftUpLeg -56.282085 45.663420 -8.342586
LeftLeg 8.592405 -0.000000 -0.000000
LeftFoot -7.783743 17.610933 -4.582617
LeftToeBase 10.300691 -0.000000 -0.000000
RightUpLeg -64.221747 -11.177408 -6.568555
RightLeg 137.968226 -0.000000 -0.000000
RightFoot 42.986349 4.597628 25.931847
RightToeBase 27.716487 -0.000000 -0.000000
